<svg width="398" height="398" viewBox="0 0 398 398" fill="none" xmlns="http://www.w3.org/2000/svg">
    <g clip-path="url(#clip0_403_38)">
        <rect width="398" height="398" fill="white"/>
        <rect x="-8" y="-8" width="414" height="414" fill="url(#paint0_linear_403_38)"/>
        <path d="M191.423 208.5L130.673 326V384H87.9229V326L27.1729 208.5H75.6729L109.673 282L143.423 208.5H191.423ZM325.147 264C321.981 258.167 317.397 253.75 311.397 250.75C305.564 247.583 298.647 246 290.647 246C276.814 246 265.731 250.583 257.397 259.75C249.064 268.75 244.897 280.833 244.897 296C244.897 312.167 249.231 324.833 257.897 334C266.731 343 278.814 347.5 294.147 347.5C304.647 347.5 313.481 344.833 320.647 339.5C327.981 334.167 333.314 326.5 336.647 316.5H282.397V285H375.397V324.75C372.231 335.417 366.814 345.333 359.147 354.5C351.647 363.667 342.064 371.083 330.397 376.75C318.731 382.417 305.564 385.25 290.897 385.25C273.564 385.25 258.064 381.5 244.397 374C230.897 366.333 220.314 355.75 212.647 342.25C205.147 328.75 201.397 313.333 201.397 296C201.397 278.667 205.147 263.25 212.647 249.75C220.314 236.083 230.897 225.5 244.397 218C257.897 210.333 273.314 206.5 290.647 206.5C311.647 206.5 329.314 211.583 343.647 221.75C358.147 231.917 367.731 246 372.397 264H325.147Z" fill="black"/>
        <path d="M146.423 99C143.256 93.1667 138.673 88.75 132.673 85.75C126.84 82.5833 119.923 81 111.923 81C98.0895 81 87.0062 85.5833 78.6729 94.75C70.3395 103.75 66.1729 115.833 66.1729 131C66.1729 147.167 70.5062 159.833 79.1729 169C88.0062 178 100.09 182.5 115.423 182.5C125.923 182.5 134.756 179.833 141.923 174.5C149.256 169.167 154.59 161.5 157.923 151.5H103.673V120H196.673V159.75C193.506 170.417 188.09 180.333 180.423 189.5C172.923 198.667 163.34 206.083 151.673 211.75C140.006 217.417 126.84 220.25 112.173 220.25C94.8395 220.25 79.3395 216.5 65.6729 209C52.1729 201.333 41.5895 190.75 33.9229 177.25C26.4229 163.75 22.6729 148.333 22.6729 131C22.6729 113.667 26.4229 98.25 33.9229 84.75C41.5895 71.0833 52.1729 60.5 65.6729 53C79.1729 45.3333 94.5895 41.5 111.923 41.5C132.923 41.5 150.59 46.5833 164.923 56.75C179.423 66.9167 189.006 81 193.673 99H146.423ZM370.853 43.5L310.103 161V219H267.353V161L206.603 43.5H255.103L289.103 117L322.853 43.5H370.853Z" fill="black"/>
    </g>
    <defs>
        <linearGradient id="paint0_linear_403_38" x1="406" y1="-8" x2="-7.99995" y2="406" gradientUnits="userSpaceOnUse">
            <stop stop-color="#E3F1CF"/>
            <stop offset="1" stop-color="#B9FF46"/>
        </linearGradient>
        <clipPath id="clip0_403_38">
            <rect width="398" height="398" fill="white"/>
        </clipPath>
    </defs>
</svg>
