<?xml version="1.0" standalone="no"?>
<!DOCTYPE svg PUBLIC "-//W3C//DTD SVG 20010904//EN"
 "http://www.w3.org/TR/2001/REC-SVG-20010904/DTD/svg10.dtd">
<svg version="1.0" xmlns="http://www.w3.org/2000/svg"
 width="398.000000pt" height="398.000000pt" viewBox="0 0 398.000000 398.000000"
 preserveAspectRatio="xMidYMid meet">
<metadata>
Created by potrace 1.14, written by Peter Selinger 2001-2017
</metadata>
<g transform="translate(0.000000,398.000000) scale(0.100000,-0.100000)"
fill="#000000" stroke="none">
<path d="M1007 3559 c-376 -40 -654 -278 -753 -645 -29 -107 -27 -389 3 -501
54 -197 158 -350 317 -469 l58 -44 -176 0 c-126 0 -176 -3 -176 -11 0 -7 135
-273 300 -592 l300 -580 0 -288 0 -289 215 0 215 0 0 293 0 292 300 580 c165
319 300 583 300 587 0 4 -71 9 -157 10 l-157 3 41 27 c120 79 243 231 300 373
l33 80 0 198 0 197 -465 0 -465 0 0 -160 0 -160 270 -2 269 -3 -30 -60 c-40
-80 -119 -159 -199 -198 -58 -29 -75 -32 -170 -35 -59 -2 -131 1 -161 7 -235
49 -373 260 -355 542 10 150 58 262 151 348 129 119 346 146 509 64 46 -23
136 -105 136 -124 0 -5 103 -9 240 -9 l240 0 -26 73 c-61 169 -190 317 -352
400 -107 56 -206 84 -338 97 -110 11 -108 11 -217 -1z m-122 -1756 c81 -23
315 -28 414 -9 47 8 86 14 89 12 4 -5 -275 -617 -287 -629 -6 -6 -281 568
-310 645 -2 6 6 7 20 3 13 -5 47 -14 74 -22z"/>
<path d="M2070 3544 c0 -4 135 -269 300 -589 l300 -582 -2 -242 -3 -243 -70
-22 c-202 -64 -372 -206 -473 -396 -133 -249 -144 -590 -27 -846 109 -239 302
-399 565 -468 88 -23 308 -32 406 -17 280 46 507 213 634 466 l50 100 0 213 0
212 -465 0 -466 0 3 -158 3 -157 268 -3 c172 -1 267 -6 267 -12 0 -6 -12 -34
-26 -62 -39 -77 -117 -153 -193 -190 -59 -29 -78 -33 -172 -36 -170 -7 -275
26 -370 115 -92 86 -137 192 -146 343 -11 179 30 312 128 415 91 96 217 142
359 132 114 -8 183 -38 258 -114 l64 -63 230 0 230 0 -6 25 c-65 260 -293 464
-588 529 l-28 6 0 234 0 234 300 580 c165 319 300 585 300 591 0 8 -64 11
-236 9 l-236 -3 -166 -362 c-91 -200 -168 -363 -171 -363 -4 1 -81 164 -173
363 l-166 362 -241 3 c-133 1 -241 -1 -241 -4z"/>
</g>
</svg>
